<svg width="30" height="29" viewBox="0 0 30 29" fill="none" xmlns="http://www.w3.org/2000/svg">
<path d="M16.5 7.18381H13.5V12.9309H7.5V15.8044H13.5V21.5514H16.5V15.8044H22.5V12.9309H16.5V7.18381ZM15 0C6.7125 0 0 6.42951 0 14.3676C0 22.3057 6.7125 28.7352 15 28.7352C23.2875 28.7352 30 22.3057 30 14.3676C30 6.42951 23.2875 0 15 0ZM15 25.8617C8.385 25.8617 3 20.7037 3 14.3676C3 8.0315 8.385 2.87352 15 2.87352C21.615 2.87352 27 8.0315 27 14.3676C27 20.7037 21.615 25.8617 15 25.8617Z" fill="#FF0000"/>
</svg>
