<svg width="37" height="33" viewBox="0 0 37 33" fill="none" xmlns="http://www.w3.org/2000/svg">
<path fill-rule="evenodd" clip-rule="evenodd" d="M11.7892 3.97146C9.81281 3.97146 7.83821 4.67725 6.33341 6.0906C4.89341 7.44528 4.09961 9.24263 4.09961 11.152C4.09961 13.0596 4.89341 14.8569 6.33341 16.2116L18.4996 27.6464L30.6658 16.2116C32.1058 14.8569 32.8996 13.0596 32.8996 11.152C32.8996 9.2444 32.1058 7.44528 30.6658 6.0906C27.658 3.2639 22.762 3.2639 19.7542 6.0906L18.4996 7.27105L17.245 6.0906C15.7402 4.67725 13.7656 3.97146 11.7892 3.97146ZM18.5 32.5L3.8246 18.7061C1.6808 16.6919 0.5 14.0092 0.5 11.1522C0.5 8.29532 1.6808 5.61263 3.8246 3.59661C7.8206 -0.159869 14.0936 -0.49765 18.5 2.57794C22.9064 -0.49765 29.1794 -0.159869 33.1754 3.59661C35.3192 5.61263 36.5 8.29532 36.5 11.1522C36.5 14.0092 35.3192 16.6919 33.1754 18.7061L18.5 32.5Z" fill="#FE0000"/>
</svg>
