<svg width="24" height="25" viewBox="0 0 24 25" fill="none" xmlns="http://www.w3.org/2000/svg">
<path d="M22 18.75H15C14.59 18.75 14.25 18.41 14.25 18C14.25 17.59 14.59 17.25 15 17.25H22C22.41 17.25 22.75 17.59 22.75 18C22.75 18.41 22.41 18.75 22 18.75Z" fill="#80001D"/>
<path d="M5 18.75H2C1.59 18.75 1.25 18.41 1.25 18C1.25 17.59 1.59 17.25 2 17.25H5C5.41 17.25 5.75 17.59 5.75 18C5.75 18.41 5.41 18.75 5 18.75Z" fill="#80001D"/>
<path d="M22 7.75H19C18.59 7.75 18.25 7.41 18.25 7C18.25 6.59 18.59 6.25 19 6.25H22C22.41 6.25 22.75 6.59 22.75 7C22.75 7.41 22.41 7.75 22 7.75Z" fill="#80001D"/>
<path d="M9 7.75H2C1.59 7.75 1.25 7.41 1.25 7C1.25 6.59 1.59 6.25 2 6.25H9C9.41 6.25 9.75 6.59 9.75 7C9.75 7.41 9.41 7.75 9 7.75Z" fill="#80001D"/>
<path d="M13 21.75H7C5.28 21.75 4.25 20.72 4.25 19V17C4.25 15.28 5.28 14.25 7 14.25H13C14.72 14.25 15.75 15.28 15.75 17V19C15.75 20.72 14.72 21.75 13 21.75ZM7 15.75C6.11 15.75 5.75 16.11 5.75 17V19C5.75 19.89 6.11 20.25 7 20.25H13C13.89 20.25 14.25 19.89 14.25 19V17C14.25 16.11 13.89 15.75 13 15.75H7Z" fill="#80001D"/>
<path d="M17 10.75H11C9.28 10.75 8.25 9.72 8.25 8V6C8.25 4.28 9.28 3.25 11 3.25H17C18.72 3.25 19.75 4.28 19.75 6V8C19.75 9.72 18.72 10.75 17 10.75ZM11 4.75C10.11 4.75 9.75 5.11 9.75 6V8C9.75 8.89 10.11 9.25 11 9.25H17C17.89 9.25 18.25 8.89 18.25 8V6C18.25 5.11 17.89 4.75 17 4.75H11Z" fill="#80001D"/>
</svg>
