<svg width="14" height="14" viewBox="0 0 14 14" fill="none" xmlns="http://www.w3.org/2000/svg">
<path d="M14 13.1249L10.0893 9.30313C11.0291 8.20057 11.4977 6.78639 11.3977 5.35478C11.2977 3.92316 10.6368 2.58433 9.55246 1.6168C8.46811 0.649269 7.04382 0.127535 5.57588 0.160132C4.10793 0.192728 2.70936 0.777145 1.6711 1.79181C0.632837 2.80647 0.0348283 4.17326 0.00147384 5.60783C-0.0318806 7.04241 0.501988 8.43433 1.49202 9.49404C2.48205 10.5537 3.85202 11.1996 5.31693 11.2974C6.78185 11.3951 8.22892 10.9371 9.35711 10.0187L13.2678 13.8405L14 13.1249ZM1.05418 5.74348C1.05418 4.84267 1.32752 3.96209 1.83962 3.2131C2.35172 2.4641 3.07959 1.88033 3.93118 1.53561C4.78278 1.19089 5.71985 1.10069 6.62389 1.27643C7.52794 1.45217 8.35836 1.88595 9.01014 2.52292C9.66193 3.15988 10.1058 3.97143 10.2856 4.85493C10.4654 5.73843 10.3732 6.6542 10.0204 7.48644C9.66767 8.31868 9.07032 9.03 8.30391 9.53047C7.53749 10.0309 6.63644 10.298 5.71468 10.298C4.47906 10.2967 3.29444 9.81642 2.42072 8.96257C1.54701 8.10871 1.05555 6.95102 1.05418 5.74348Z" fill="#80001D"/>
</svg>
